<svg width="14" height="14" viewBox="0 0 14 14" fill="none" xmlns="http://www.w3.org/2000/svg">
<path d="M13.125 5.14062C13.125 8.96875 7.44898 12.0673 7.20727 12.1953C7.14356 12.2296 7.07234 12.2475 7 12.2475C6.92766 12.2475 6.85644 12.2296 6.79273 12.1953C6.55102 12.0673 0.875 8.96875 0.875 5.14062C0.876013 4.24169 1.23356 3.37986 1.86921 2.74421C2.50486 2.10856 3.36669 1.75101 4.26562 1.75C5.39492 1.75 6.38367 2.23562 7 3.05648C7.61633 2.23562 8.60508 1.75 9.73438 1.75C10.6333 1.75101 11.4951 2.10856 12.1308 2.74421C12.7664 3.37986 13.124 4.24169 13.125 5.14062Z" fill="#9290C3"/>
</svg>
