<svg width="117" height="24" viewBox="0 0 117 24" fill="none" xmlns="http://www.w3.org/2000/svg">
<path d="M38.88 18L38.304 15.616H35.072L34.512 18H31.792L35.136 6.912H38.32L41.664 18H38.88ZM35.52 13.712H37.856L36.688 8.816L35.52 13.712ZM45.4215 9.232C46.0295 9.232 46.6002 9.32267 47.1335 9.504C47.6668 9.68533 48.1362 9.94133 48.5415 10.272L47.6135 11.696C46.9202 11.2587 46.2215 11.04 45.5175 11.04C45.1868 11.04 44.9308 11.0987 44.7495 11.216C44.5788 11.3227 44.4935 11.4773 44.4935 11.68C44.4935 11.84 44.5308 11.9733 44.6055 12.08C44.6908 12.176 44.8562 12.2773 45.1015 12.384C45.3468 12.4907 45.7255 12.6187 46.2375 12.768C47.1228 13.024 47.7788 13.36 48.2055 13.776C48.6428 14.1813 48.8615 14.7467 48.8615 15.472C48.8615 16.048 48.6962 16.5493 48.3655 16.976C48.0348 17.392 47.5815 17.712 47.0055 17.936C46.4295 18.16 45.7895 18.272 45.0855 18.272C44.3708 18.272 43.7042 18.16 43.0855 17.936C42.4775 17.712 41.9602 17.4027 41.5335 17.008L42.7655 15.632C43.4802 16.1867 44.2322 16.464 45.0215 16.464C45.4055 16.464 45.7042 16.3947 45.9175 16.256C46.1415 16.1173 46.2535 15.92 46.2535 15.664C46.2535 15.4613 46.2108 15.3013 46.1255 15.184C46.0402 15.0667 45.8748 14.96 45.6295 14.864C45.3842 14.7573 44.9948 14.6293 44.4615 14.48C43.6188 14.2347 42.9895 13.8933 42.5735 13.456C42.1575 13.0187 41.9495 12.4747 41.9495 11.824C41.9495 11.3333 42.0882 10.896 42.3655 10.512C42.6535 10.1173 43.0588 9.808 43.5815 9.584C44.1148 9.34933 44.7282 9.232 45.4215 9.232ZM55.4919 17.6C55.1825 17.8133 54.8199 17.9787 54.4039 18.096C53.9985 18.2133 53.5932 18.272 53.1879 18.272C51.3319 18.2613 50.4039 17.2373 50.4039 15.2V11.264H49.2039V9.504H50.4039V7.664L52.9319 7.376V9.504H54.8839L54.6119 11.264H52.9319V15.168C52.9319 15.5627 52.9959 15.8453 53.1239 16.016C53.2519 16.1867 53.4545 16.272 53.7319 16.272C54.0199 16.272 54.3239 16.1813 54.6439 16L55.4919 17.6ZM60.9438 9.264C61.2531 9.264 61.5358 9.30133 61.7918 9.376L61.3918 11.824C61.0718 11.7493 60.8158 11.712 60.6238 11.712C60.1224 11.712 59.7384 11.888 59.4718 12.24C59.2158 12.5813 59.0131 13.0987 58.8638 13.792V18H56.3358V9.504H58.5438L58.7518 11.152C58.9438 10.5653 59.2318 10.1067 59.6158 9.776C60.0104 9.43467 60.4531 9.264 60.9438 9.264ZM65.9533 9.232C67.2546 9.232 68.2733 9.632 69.0093 10.432C69.7453 11.2213 70.1133 12.3307 70.1133 13.76C70.1133 14.6667 69.9426 15.4613 69.6013 16.144C69.2706 16.816 68.7906 17.3387 68.1613 17.712C67.5426 18.0853 66.8066 18.272 65.9533 18.272C64.6626 18.272 63.6439 17.8773 62.8973 17.088C62.1613 16.288 61.7933 15.1733 61.7933 13.744C61.7933 12.8373 61.9586 12.048 62.2893 11.376C62.6306 10.6933 63.1106 10.1653 63.7293 9.792C64.3586 9.41867 65.0999 9.232 65.9533 9.232ZM65.9533 11.088C65.4413 11.088 65.0573 11.3067 64.8013 11.744C64.5453 12.1707 64.4173 12.8373 64.4173 13.744C64.4173 14.672 64.5399 15.3493 64.7853 15.776C65.0413 16.2027 65.4306 16.416 65.9533 16.416C66.4653 16.416 66.8493 16.2027 67.1053 15.776C67.3613 15.3387 67.4893 14.6667 67.4893 13.76C67.4893 12.832 67.3613 12.1547 67.1053 11.728C66.8599 11.3013 66.4759 11.088 65.9533 11.088ZM79.249 6.912L78.993 8.928H76.257V18H73.633V8.928H70.769V6.912H79.249ZM86.2128 15.536C86.2128 15.856 86.2554 16.0907 86.3408 16.24C86.4368 16.3893 86.5861 16.5013 86.7888 16.576L86.2608 18.224C85.7381 18.1813 85.3114 18.0693 84.9808 17.888C84.6501 17.696 84.3941 17.3973 84.2128 16.992C83.6581 17.8453 82.8048 18.272 81.6528 18.272C80.8101 18.272 80.1381 18.0267 79.6368 17.536C79.1354 17.0453 78.8848 16.4053 78.8848 15.616C78.8848 14.688 79.2261 13.9787 79.9088 13.488C80.5914 12.9973 81.5781 12.752 82.8688 12.752H83.7328V12.384C83.7328 11.8827 83.6261 11.5413 83.4128 11.36C83.1994 11.168 82.8261 11.072 82.2928 11.072C82.0154 11.072 81.6794 11.1147 81.2848 11.2C80.8901 11.2747 80.4848 11.3813 80.0688 11.52L79.4928 9.856C80.0261 9.65333 80.5701 9.49867 81.1248 9.392C81.6901 9.28533 82.2128 9.232 82.6927 9.232C83.9088 9.232 84.7994 9.48267 85.3648 9.984C85.9301 10.4853 86.2128 11.2373 86.2128 12.24V15.536ZM82.3888 16.464C82.9648 16.464 83.4128 16.192 83.7328 15.648V14.144H83.1088C82.5328 14.144 82.1008 14.2453 81.8128 14.448C81.5354 14.6507 81.3968 14.9653 81.3968 15.392C81.3968 15.7333 81.4821 16 81.6528 16.192C81.8341 16.3733 82.0794 16.464 82.3888 16.464ZM90.3261 18.272C89.5901 18.272 89.0141 18.064 88.5981 17.648C88.1928 17.2213 87.9901 16.6187 87.9901 15.84V6.128L90.5181 5.856V15.744C90.5181 16.096 90.6621 16.272 90.9501 16.272C91.0995 16.272 91.2381 16.2453 91.3661 16.192L91.8621 17.984C91.4035 18.176 90.8915 18.272 90.3261 18.272ZM100.15 13.584C100.15 13.936 100.134 14.24 100.102 14.496H94.838C94.9233 15.2107 95.126 15.712 95.446 16C95.766 16.288 96.2087 16.432 96.774 16.432C97.1153 16.432 97.446 16.3733 97.766 16.256C98.086 16.128 98.4327 15.936 98.806 15.68L99.846 17.088C98.854 17.8773 97.75 18.272 96.534 18.272C95.158 18.272 94.102 17.8667 93.366 17.056C92.63 16.2453 92.262 15.1573 92.262 13.792C92.262 12.928 92.4167 12.1547 92.726 11.472C93.0353 10.7787 93.4887 10.2347 94.086 9.84C94.6833 9.43467 95.398 9.232 96.23 9.232C97.4567 9.232 98.4167 9.616 99.11 10.384C99.8033 11.152 100.15 12.2187 100.15 13.584ZM97.67 12.864C97.6487 11.5627 97.19 10.912 96.294 10.912C95.8567 10.912 95.5153 11.072 95.27 11.392C95.0353 11.712 94.8913 12.24 94.838 12.976H97.67V12.864ZM106.546 9.232C107.282 9.232 107.858 9.456 108.274 9.904C108.69 10.352 108.898 10.9813 108.898 11.792V18H106.37V12.224C106.37 11.7973 106.301 11.504 106.162 11.344C106.034 11.1733 105.837 11.088 105.57 11.088C105.058 11.088 104.567 11.456 104.098 12.192V18H101.57V9.504H103.778L103.954 10.512C104.317 10.0853 104.706 9.76533 105.122 9.552C105.549 9.33867 106.023 9.232 106.546 9.232ZM116.133 17.6C115.823 17.8133 115.461 17.9787 115.045 18.096C114.639 18.2133 114.234 18.272 113.829 18.272C111.973 18.2613 111.045 17.2373 111.045 15.2V11.264H109.845V9.504H111.045V7.664L113.573 7.376V9.504H115.525L115.253 11.264H113.573V15.168C113.573 15.5627 113.637 15.8453 113.765 16.016C113.893 16.1867 114.095 16.272 114.373 16.272C114.661 16.272 114.965 16.1813 115.285 16L116.133 17.6Z" fill="#F9F9F9"/>
<path fill-rule="evenodd" clip-rule="evenodd" d="M10.9664 6.16642L12.2464 4.88642C13.2768 3.85442 15.0864 3.13922 16.8832 2.88162C17.6798 2.75751 18.49 2.74674 19.2896 2.84962C19.9984 2.95522 20.432 3.16322 20.6336 3.36642C20.8368 3.56802 21.0448 4.00162 21.1504 4.71042C21.2528 5.39362 21.2448 6.23042 21.1184 7.11682C20.8624 8.91362 20.1456 10.7232 19.1136 11.7536L12 18.8688L10.1664 17.0352C10.0921 16.9608 10.0039 16.9018 9.90685 16.8615C9.80976 16.8212 9.70569 16.8004 9.60058 16.8004C9.49546 16.8003 9.39136 16.8209 9.29422 16.8611C9.19707 16.9012 9.10879 16.9601 9.03441 17.0344C8.88419 17.1844 8.79972 17.388 8.79957 17.6003C8.79949 17.7054 8.82012 17.8095 8.86028 17.9066C8.90044 18.0038 8.95934 18.092 9.03361 18.1664L11.4336 20.5664C11.5079 20.6409 11.5962 20.7 11.6934 20.7404C11.7906 20.7807 11.8948 20.8014 12 20.8014C12.1052 20.8014 12.2094 20.7807 12.3066 20.7404C12.4038 20.7 12.4921 20.6409 12.5664 20.5664L13.4416 19.6896L15.3136 22.8112C15.376 22.9157 15.4615 23.0046 15.5635 23.0711C15.6655 23.1376 15.7813 23.18 15.9021 23.195C16.0229 23.2099 16.1456 23.1971 16.2607 23.1575C16.3758 23.1179 16.4804 23.0526 16.5664 22.9664L19.7664 19.7664C19.8543 19.6784 19.9204 19.5711 19.9596 19.4531C19.9987 19.335 20.0099 19.2095 19.992 19.0864L19.248 13.8832L20.2464 12.8864C21.6144 11.5168 22.4192 9.32642 22.7024 7.34242C22.8464 6.33922 22.8624 5.34242 22.7328 4.47202C22.6048 3.62722 22.3232 2.79202 21.7664 2.23362C21.208 1.67682 20.3728 1.39362 19.5264 1.26722C18.5735 1.14177 17.6075 1.15254 16.6576 1.29922C14.672 1.57922 12.48 2.38402 11.1136 3.75202L10.1168 4.75042L4.91361 4.00642C4.79053 3.98858 4.66498 3.99968 4.54694 4.03884C4.4289 4.078 4.32162 4.14415 4.23361 4.23202L1.03361 7.43202C0.94748 7.51806 0.882124 7.62263 0.842521 7.73775C0.802918 7.85288 0.790113 7.97552 0.80508 8.09634C0.820048 8.21717 0.862394 8.33298 0.928893 8.43496C0.995391 8.53694 1.08429 8.62239 1.18881 8.68482L4.30881 10.5568L3.43361 11.432C3.35911 11.5063 3.3 11.5946 3.25967 11.6918C3.21934 11.789 3.19858 11.8932 3.19858 11.9984C3.19858 12.1036 3.21934 12.2078 3.25967 12.305C3.3 12.4022 3.35911 12.4905 3.43361 12.5648L5.83361 14.9648C5.90799 15.0392 5.99629 15.0982 6.09348 15.1385C6.19066 15.1787 6.29482 15.1994 6.40001 15.1994C6.5052 15.1994 6.60936 15.1787 6.70654 15.1385C6.80373 15.0982 6.89203 15.0392 6.96641 14.9648C7.04079 14.8904 7.09979 14.8021 7.14005 14.705C7.1803 14.6078 7.20102 14.5036 7.20102 14.3984C7.20102 14.2932 7.1803 14.1891 7.14005 14.0919C7.09979 13.9947 7.04079 13.9064 6.96641 13.832L5.13121 12L6.16641 10.9664L10.9664 6.16642ZM16.1584 21.1104L14.6064 18.5232L17.8336 15.2976L18.352 18.9168L16.1584 21.1104ZM5.47681 9.39202L8.70241 6.16642L5.08321 5.64802L2.89121 7.84002L5.47681 9.39202ZM3.76481 16.5664C3.83919 16.4921 3.89821 16.4039 3.93851 16.3069C3.9788 16.2098 3.99958 16.1057 3.99966 16.0006C3.99973 15.8955 3.9791 15.7914 3.93894 15.6942C3.89878 15.5971 3.83989 15.5088 3.76561 15.4344C3.69134 15.36 3.60314 15.301 3.50605 15.2607C3.40896 15.2204 3.30489 15.1996 3.19978 15.1996C3.09466 15.1995 2.99056 15.2201 2.89342 15.2603C2.79627 15.3004 2.70799 15.3593 2.63361 15.4336L1.03361 17.0336C0.883604 17.1838 0.799416 17.3875 0.799566 17.5998C0.799716 17.8121 0.884192 18.0156 1.03441 18.1656C1.18463 18.3156 1.38829 18.3998 1.60058 18.3997C1.81287 18.3995 2.0164 18.315 2.16641 18.1648L3.76481 16.5664ZM6.16481 18.9664C6.24122 18.8926 6.30216 18.8043 6.34409 18.7067C6.38602 18.6091 6.40809 18.5042 6.40901 18.3979C6.40993 18.2917 6.38969 18.1864 6.34947 18.0881C6.30924 17.9897 6.24984 17.9004 6.17473 17.8253C6.09961 17.7502 6.01029 17.6908 5.91197 17.6506C5.81366 17.6103 5.70831 17.5901 5.60209 17.591C5.49587 17.5919 5.39089 17.614 5.29329 17.6559C5.19568 17.6979 5.10741 17.7588 5.03361 17.8352L1.83361 21.0352C1.6836 21.1854 1.59942 21.3891 1.59957 21.6014C1.59972 21.8137 1.68419 22.0172 1.83441 22.1672C1.98463 22.3172 2.18829 22.4014 2.40058 22.4013C2.61287 22.4011 2.8164 22.3166 2.96641 22.1664L6.16481 18.9664ZM8.56481 21.3664C8.63919 21.2921 8.69821 21.2039 8.73851 21.1069C8.7788 21.0098 8.79958 20.9057 8.79966 20.8006C8.79973 20.6955 8.7791 20.5914 8.73894 20.4942C8.69878 20.3971 8.63989 20.3088 8.56561 20.2344C8.49133 20.16 8.40314 20.101 8.30605 20.0607C8.20896 20.0204 8.10489 19.9996 7.99978 19.9996C7.89466 19.9995 7.79056 20.0201 7.69342 20.0603C7.59627 20.1004 7.50799 20.1593 7.43361 20.2336L5.83361 21.8336C5.6836 21.9838 5.59942 22.1875 5.59957 22.3998C5.59972 22.6121 5.68419 22.8156 5.83441 22.9656C5.98463 23.1156 6.18828 23.1998 6.40058 23.1997C6.61287 23.1995 6.8164 23.115 6.96641 22.9648L8.56481 21.3664ZM15.2 10.7984C15.4624 10.7984 15.7223 10.7467 15.9648 10.6463C16.2072 10.5459 16.4275 10.3987 16.6131 10.2131C16.7987 10.0275 16.9459 9.80723 17.0463 9.56477C17.1467 9.32232 17.1984 9.06245 17.1984 8.80002C17.1984 8.53759 17.1467 8.27772 17.0463 8.03526C16.9459 7.79281 16.7987 7.57251 16.6131 7.38694C16.4275 7.20137 16.2072 7.05417 15.9648 6.95374C15.7223 6.85331 15.4624 6.80162 15.2 6.80162C14.67 6.80162 14.1617 7.01216 13.7869 7.38694C13.4122 7.76171 13.2016 8.27001 13.2016 8.80002C13.2016 9.33003 13.4122 9.83833 13.7869 10.2131C14.1617 10.5879 14.67 10.7984 15.2 10.7984Z" fill="#D4E667"/>
</svg>
